<svg width="342" height="113" viewBox="0 0 342 113" fill="none" xmlns="http://www.w3.org/2000/svg">
<path d="M80.2228 4.86577C80.6195 4.61235 81.0188 4.35892 81.418 4.10803C81.418 5.10399 81.4181 6.10249 81.4102 7.09845C81.084 7.26318 80.7578 7.4279 80.4342 7.59516C80.4499 6.70311 80.3951 5.80852 80.2333 4.92913L80.2228 4.86577Z" fill="white"/>
<path d="M80.3011 9.17903C80.6769 8.97629 81.0501 8.76848 81.4233 8.56067C81.4155 9.50848 81.4155 10.4563 81.4129 11.4041C81.0527 11.5663 80.6952 11.7285 80.3377 11.8932C80.3168 11.024 80.3064 10.1547 80.3038 9.28547L80.3011 9.17903Z" fill="white"/>
<path d="M80.4734 13.543C80.7865 13.358 81.0997 13.173 81.4129 12.988C81.4181 13.8953 81.4181 14.8 81.4129 15.7048C81.1597 15.8087 80.9066 15.9126 80.6561 16.0165C80.6221 15.1903 80.5621 14.3641 80.4734 13.543Z" fill="white"/>
<path d="M80.2228 18.0541C80.6221 17.8488 81.0214 17.6435 81.4207 17.4382C81.4181 18.2948 81.4154 19.1514 81.4128 20.0054C81.1075 20.122 80.8074 20.2386 80.5047 20.3552C80.4368 19.605 80.3507 18.8574 80.2333 18.1149L80.2228 18.0541Z" fill="white"/>
<path d="M80.3064 22.4408C80.6744 22.2507 81.0449 22.0632 81.4155 21.8782C81.4181 22.6891 81.4181 23.4976 81.4129 24.306C81.0971 24.4175 80.7813 24.529 80.4682 24.6405C80.4212 23.9056 80.3664 23.1732 80.3064 22.4408Z" fill="white"/>
<path d="M80.4603 26.7744C80.7787 26.6223 81.0971 26.4703 81.4155 26.3182C81.4155 27.0836 81.4181 27.8464 81.4181 28.6117C81.1493 28.6903 80.8831 28.7714 80.6169 28.85C80.5673 28.1581 80.5177 27.4663 80.4603 26.7744Z" fill="white"/>
<path d="M79.8967 40.1729C80.4003 39.9981 80.9066 39.8283 81.4155 39.661C81.4155 40.2768 81.4155 40.8901 81.4181 41.5034C81.0005 41.5997 80.5882 41.6985 80.1759 41.7974C80.262 41.3919 80.3481 40.989 80.4369 40.586C80.3012 40.4821 80.0298 40.2768 79.8967 40.1729Z" fill="white"/>
<path d="M81.4181 4.10803C82.6185 4.89365 83.7955 5.71475 84.9985 6.49783C84.975 7.30372 84.9672 8.11215 84.9724 8.91804C83.8033 8.27688 82.582 7.72948 81.4103 7.09845C81.4181 6.10249 81.4181 5.10399 81.4181 4.10803Z" fill="white"/>
<path d="M81.4233 8.56067C82.6316 9.29307 83.8085 10.0787 85.022 10.8086C84.9829 11.5612 84.9464 12.3139 84.9098 13.0691C83.7564 12.4862 82.5716 11.9718 81.4129 11.4041C81.4155 10.4563 81.4155 9.50848 81.4233 8.56067Z" fill="white"/>
<path d="M81.4155 26.3182C82.7073 26.9163 83.9808 27.5499 85.2908 28.1125C85.2465 28.6827 85.176 29.2529 84.9829 29.7952C83.7877 29.4176 82.6055 29.0096 81.4181 28.6117C81.4181 27.8464 81.4155 27.0836 81.4155 26.3182Z" fill="white"/>
<path d="M81.4207 30.781C82.702 31.2955 83.9521 31.8783 85.236 32.3852C85.2229 32.9478 85.2151 33.5104 85.2047 34.0755C83.9547 33.6498 82.6733 33.3102 81.4181 32.8996C81.4207 32.1926 81.4181 31.4881 81.4207 30.781Z" fill="white"/>
<path d="M81.4155 39.661C82.6916 40.0868 83.9521 40.5531 85.2308 40.9661C85.2256 41.4527 85.223 41.9393 85.223 42.4284C83.9625 42.0838 82.6838 41.8202 81.4181 41.5034C81.4155 40.8901 81.4155 40.2768 81.4155 39.661Z" fill="white"/>
<path d="M81.4233 44.1112C82.6159 44.4584 83.7981 44.8411 84.9933 45.1857C84.9855 45.6292 84.9803 46.0753 84.9777 46.5187C83.7851 46.2932 82.5977 46.0499 81.4129 45.799C81.4181 45.2339 81.4181 44.6713 81.4233 44.1112Z" fill="white"/>
<path d="M58.5786 58.227C59.5676 57.9913 60.5488 57.7075 61.5379 57.4692C61.5327 57.8697 61.5274 58.2751 61.5222 58.6781C60.5462 58.8327 59.5702 58.9797 58.602 59.1723C58.5968 58.9366 58.5838 58.4627 58.5786 58.227Z" fill="white"/>
<path d="M79.1346 5.58038C79.4974 5.3599 79.8627 5.14449 80.2333 4.92908C80.3951 5.80846 80.4499 6.70305 80.4342 7.59511C80.0715 7.77251 79.7114 7.95497 79.3512 8.13491C79.3199 7.30367 79.2547 6.4699 79.1425 5.64374L79.1346 5.58038Z" fill="white"/>
<path d="M78.8998 18.761C79.3408 18.543 79.7871 18.3276 80.2333 18.1147C80.3507 18.8573 80.4369 19.6049 80.5047 20.355C79.9697 20.578 79.4374 20.8011 78.9076 21.0291C79.0146 20.2993 79.0224 19.5567 78.9076 18.8269L78.8998 18.761Z" fill="white"/>
<path d="M78.8972 23.1098C79.3695 22.8919 79.8392 22.6689 80.3064 22.4408C80.3664 23.1732 80.4212 23.9056 80.4682 24.6405C80.0167 24.8103 79.5678 24.9801 79.119 25.1474C79.0459 24.4859 78.9754 23.827 78.9024 23.1656L78.8972 23.1098Z" fill="white"/>
<path d="M78.8998 27.4788C79.4191 27.2406 79.9384 27.0049 80.4603 26.7743C80.5178 27.4661 80.5673 28.158 80.6169 28.8498C80.1028 29.0348 79.5887 29.2173 79.0746 29.3947C79.0172 28.7561 78.9598 28.1174 78.8998 27.4788Z" fill="white"/>
<path d="M77.8898 6.39901C78.3048 6.14305 78.7223 5.89216 79.1425 5.6438C79.2547 6.46997 79.3199 7.30373 79.3512 8.13497C78.8554 8.39346 78.3622 8.64942 77.869 8.90792C77.9812 8.09696 77.9994 7.27586 77.895 6.4649L77.8898 6.39901Z" fill="white"/>
<path d="M77.8272 45.1426C78.357 45.0058 78.8841 44.8689 79.4165 44.7346C79.4217 45.2237 79.4269 45.7154 79.4321 46.207C78.9807 46.2983 78.5266 46.392 78.0751 46.4858C77.9942 46.0575 77.9159 45.6317 77.8376 45.2035L77.8272 45.1426Z" fill="white"/>
<path d="M77.8168 49.4332C78.3465 49.3293 78.8737 49.2279 79.406 49.1342C79.4034 49.5751 79.4008 50.0135 79.4008 50.4545C78.9546 50.528 78.5109 50.6066 78.0699 50.6851C77.989 50.2872 77.9081 49.8919 77.8298 49.4966L77.8168 49.4332Z" fill="white"/>
<path d="M77.4723 62.4187C78.0934 62.33 78.7197 62.2464 79.3434 62.1653C79.4426 62.4846 79.5417 62.8039 79.6409 63.1232C79.0355 63.1739 78.4326 63.2246 77.8298 63.2626C77.7411 63.0523 77.561 62.6291 77.4723 62.4187Z" fill="white"/>
<path d="M76.0083 7.64074C76.6346 7.24539 77.2609 6.84752 77.8951 6.46484C77.9994 7.2758 77.9812 8.0969 77.869 8.90786C77.3288 9.17396 76.7938 9.44513 76.2562 9.71376C76.1753 9.04218 76.097 8.3706 76.0161 7.69902L76.0083 7.64074Z" fill="white"/>
<path d="M76.1858 45.6925C76.679 45.4036 77.2922 45.3681 77.8377 45.2034C77.916 45.6317 77.9942 46.0574 78.0751 46.4857C77.4619 46.62 76.8512 46.7543 76.238 46.8836C76.2066 46.544 76.1727 46.2069 76.1388 45.8699L76.1858 45.6925Z" fill="white"/>
<path d="M75.7761 49.9628C76.4598 49.8056 77.1435 49.6485 77.8298 49.4965C77.9081 49.8918 77.989 50.2871 78.0699 50.685C77.4802 50.7889 76.8904 50.8928 76.3006 50.9917C76.131 50.6648 75.9666 50.3404 75.8022 50.0134L75.7761 49.9628Z" fill="white"/>
<path d="M93.4407 70.3381C94.221 70.3863 95.0013 70.4395 95.7842 70.4877C95.8338 71.4076 95.7842 72.3301 95.6067 73.2373C94.8812 73.2601 94.1584 73.2905 93.4381 73.3235C93.4485 72.3275 93.4512 71.3341 93.4407 70.3381Z" fill="white"/>
<path d="M84.9985 6.4978C86.5252 7.43294 87.9553 8.50746 89.4819 9.44514L89.4741 9.49075C89.4271 10.0204 89.341 10.5475 89.1348 11.0417C87.7647 10.2992 86.3451 9.65295 84.9724 8.91801C84.9672 8.11212 84.975 7.30369 84.9985 6.4978Z" fill="white"/>
<path d="M85.022 10.8086C86.546 11.693 87.9944 12.6991 89.5184 13.5937C89.4323 14.093 89.414 14.6302 89.0852 15.0535C87.6995 14.3768 86.2877 13.7534 84.9098 13.0691C84.9463 12.3139 84.9829 11.5613 85.022 10.8086Z" fill="white"/>
<path d="M91.4391 70.2039C92.1045 70.2495 92.7726 70.2951 93.4407 70.3382C93.4511 71.3341 93.4485 72.3276 93.4381 73.3235C92.8274 73.3514 92.2168 73.3767 91.6061 73.4021C91.6557 72.3326 91.6296 71.2581 91.4391 70.2039Z" fill="white"/>
<path d="M73.2081 9.51616C74.1319 8.89526 75.0662 8.28451 76.0161 7.6991C76.097 8.37067 76.1753 9.04225 76.2562 9.71383C75.2671 10.208 74.2964 10.7402 73.2995 11.2217C73.2682 10.654 73.2368 10.0864 73.2081 9.51616Z" fill="white"/>
<path d="M73.1142 17.7981C74.0928 17.2127 75.0975 16.6678 76.0787 16.0824C76.1466 16.7109 76.2144 17.3394 76.2823 17.9679C75.3219 18.3734 74.3799 18.8219 73.4221 19.235C73.3177 18.756 73.216 18.2771 73.1142 17.7981Z" fill="white"/>
<path d="M73.2473 42.3854C74.252 42.0788 75.2436 41.729 76.2536 41.4351C76.264 41.8101 76.2744 42.1852 76.2849 42.5628L76.1883 42.7377C75.2776 43.0443 74.3198 43.1964 73.3908 43.4473C73.3569 43.1964 73.289 42.6895 73.2551 42.4386L73.2473 42.3854Z" fill="white"/>
<path d="M73.5396 50.566C74.2885 50.3582 75.0427 50.1808 75.8021 50.0135C75.9665 50.3405 76.131 50.6649 76.3006 50.9918C75.3663 51.1565 74.4373 51.3415 73.5031 51.4961C73.5135 51.2629 73.5318 50.7966 73.5396 50.566Z" fill="white"/>
<path d="M78.3701 10.4057C79.0068 10.0205 79.6514 9.64792 80.3038 9.28552C80.3064 10.1548 80.3168 11.024 80.3377 11.8933C79.7767 12.1695 79.213 12.4407 78.6467 12.7118C78.5971 11.9592 78.5136 11.2065 78.3805 10.464L78.3701 10.4057Z" fill="white"/>
<path d="M108.467 27.826C110.949 29.415 113.389 31.0674 115.855 32.6791C113.164 31.3993 110.5 30.0663 107.838 28.7308C108.047 28.4292 108.256 28.1276 108.467 27.826Z" fill="white"/>
<path d="M78.3752 40.657C78.8815 40.5024 79.3904 40.3402 79.8967 40.173C80.0298 40.2769 80.3012 40.4821 80.4369 40.5861C80.3481 40.989 80.262 41.3919 80.1759 41.7974C79.6461 41.9241 79.1138 42.0483 78.584 42.1674C78.5162 41.6809 78.4483 41.1968 78.3831 40.7102L78.3752 40.657Z" fill="white"/>
<path d="M108.24 43.4675C110.565 44.4584 112.822 45.5963 115.15 46.5872C114.639 46.5213 114.135 46.3946 113.655 46.2147C111.836 45.5634 109.97 45.0464 108.164 44.3647C108.183 44.1416 108.219 43.6931 108.24 43.4675Z" fill="white"/>
<path d="M47.4406 61.002C50.0372 60.4622 52.579 59.707 55.1521 59.0709C55.2591 59.2863 55.3687 59.5043 55.4861 59.7172C52.806 60.153 50.139 60.7258 47.4406 61.002Z" fill="white"/>
<path d="M61.8615 16.977C65.648 14.4959 69.4294 12.0098 73.2082 9.51611C73.2369 10.0863 73.2682 10.654 73.2995 11.2217C69.907 12.9602 66.517 14.6987 63.1245 16.4346C62.7148 16.6399 62.292 16.8198 61.8615 16.977Z" fill="white"/>
<path d="M62.2868 53.4119C66.0395 52.4691 69.7921 51.5213 73.5396 50.5659C73.5317 50.7965 73.5135 51.2628 73.503 51.496C69.7582 52.1017 66.0525 52.9659 62.2868 53.4119Z" fill="white"/>
<path d="M89.474 9.49072C91.4051 10.6286 93.1901 11.987 95.09 13.1705C94.8864 13.3656 94.6829 13.5582 94.4819 13.7533C92.7126 12.8207 90.8989 11.9794 89.1348 11.0417C89.3409 10.5475 89.427 10.0204 89.474 9.49072Z" fill="white"/>
<path d="M89.5184 13.5936C91.0946 14.5313 92.616 15.5501 94.1844 16.503C94.1009 16.7919 94.02 17.0808 93.9391 17.3697C92.3394 16.5612 90.6797 15.8694 89.0852 15.0534C89.414 14.6301 89.4323 14.0929 89.5184 13.5936Z" fill="white"/>
<path d="M108.232 46.6251C110.719 47.5831 113.125 48.7336 115.63 49.6485C113.089 49.0099 110.583 48.2116 108.083 47.4234C108.123 47.2232 108.196 46.8253 108.232 46.6251Z" fill="white"/>
<path d="M107.603 55.9335C110.309 56.6152 112.94 57.5554 115.646 58.2422C112.995 57.7759 110.346 57.2335 107.718 56.6583C107.689 56.4758 107.632 56.1134 107.603 55.9335Z" fill="white"/>
<path d="M76.2745 11.7057C76.9739 11.2875 77.6706 10.8668 78.3805 10.4639C78.5135 11.2064 78.5971 11.9591 78.6466 12.7117C77.9525 13.0336 77.2635 13.3707 76.572 13.7001C76.4911 13.0513 76.3971 12.4051 76.2823 11.7614L76.2745 11.7057Z" fill="white"/>
<path d="M73.383 13.4924C74.3616 12.9323 75.3037 12.3165 76.2823 11.7615C76.3971 12.4052 76.4911 13.0514 76.572 13.7002C75.6142 14.1285 74.6852 14.6176 73.7275 15.0484C73.6152 14.5466 73.5056 14.0474 73.396 13.5456L73.383 13.4924Z" fill="white"/>
<path d="M73.5735 38.1709C74.4973 37.8136 75.4342 37.4841 76.3606 37.1243C76.3788 37.6058 76.3997 38.0873 76.4206 38.5713C75.4629 38.8298 74.513 39.1187 73.5526 39.3696C73.5578 38.9692 73.5657 38.5688 73.5735 38.1709Z" fill="white"/>
<path d="M73.5082 46.425C74.3303 46.2248 75.1236 45.9004 75.9717 45.8041L76.1388 45.87C76.1727 46.207 76.2066 46.5441 76.2379 46.8837C75.3402 47.0636 74.4503 47.2689 73.5526 47.4488C73.5422 47.203 73.5213 46.7164 73.5109 46.4706L73.5082 46.425Z" fill="white"/>
<path d="M81.4128 12.988C82.7855 13.7686 84.1112 14.6226 85.5074 15.3652L85.51 15.4032C85.5909 16.0824 85.5935 16.7869 85.2229 17.3951C83.9703 16.797 82.6733 16.2876 81.4128 15.7048C81.4181 14.8 81.4181 13.8953 81.4128 12.988Z" fill="white"/>
<path d="M81.4207 17.4382C82.7881 18.1732 84.1373 18.9385 85.5074 19.6684C85.4891 20.3323 85.476 20.9989 85.463 21.6628C84.1295 21.0724 82.7568 20.5756 81.4128 20.0054C81.4155 19.1514 81.4181 18.2948 81.4207 17.4382Z" fill="white"/>
<path d="M81.4155 21.8782C82.8481 22.5903 84.2573 23.348 85.7031 24.0399C85.7083 24.6633 85.7135 25.2893 85.7187 25.9152C84.2965 25.3501 82.8429 24.8585 81.4128 24.306C81.4181 23.4976 81.4181 22.6891 81.4155 21.8782Z" fill="white"/>
<path d="M81.4207 35.2185C82.869 35.7583 84.2965 36.3437 85.75 36.8759C85.737 37.3802 85.7292 37.8871 85.7213 38.3914C84.2991 37.958 82.8507 37.6134 81.4207 37.2104C81.4207 36.5439 81.4207 35.8799 81.4207 35.2185Z" fill="white"/>
<path d="M95.09 13.1705C96.7549 14.2704 98.4773 15.3044 100.051 16.5284C98.1407 15.7099 96.3165 14.7114 94.4819 13.7534C94.6829 13.5583 94.8864 13.3657 95.09 13.1705Z" fill="white"/>
<path d="M79.8705 69.6717C80.382 69.6362 80.8961 69.5982 81.4102 69.5627C81.4128 70.9921 81.4128 72.4239 81.4102 73.8532C80.9013 73.8279 80.3925 73.8051 79.8862 73.7823C79.9019 72.4112 79.8966 71.0428 79.8705 69.6717Z" fill="white"/>
<path d="M62.0441 20.5781C65.7785 18.1629 69.5964 15.8644 73.3961 13.5455C73.5057 14.0473 73.6153 14.5466 73.7275 15.0483C69.8235 16.8755 65.9899 18.8421 62.0441 20.5781Z" fill="white"/>
<path d="M61.8223 24.3313C65.5671 22.1265 69.3537 19.985 73.1142 17.798C73.2159 18.2769 73.3177 18.7559 73.4221 19.2349C69.5442 20.91 65.7367 22.7448 61.8223 24.3313Z" fill="white"/>
<path d="M61.8484 57.2082C65.9038 56.3034 69.9748 55.4393 74.0484 54.608C74.1085 54.8108 74.2311 55.2112 74.2938 55.4139C70.1444 56.0044 66.0055 56.6785 61.8484 57.2082Z" fill="white"/>
<path d="M59.1396 70.9844C60.3191 70.9109 61.5013 70.845 62.6809 70.7614C62.6783 71.5166 62.6704 72.2743 62.6626 73.032C61.7049 72.989 60.7471 72.9535 59.792 72.9079C59.7789 72.4264 59.7685 71.9448 59.7633 71.4659C59.6276 71.362 59.3562 71.1516 59.2205 71.0477L59.1396 70.9844Z" fill="white"/>
<path d="M79.5026 14.1006C79.8262 13.9131 80.1472 13.7281 80.4734 13.5431C80.5621 14.3642 80.6222 15.1904 80.6561 16.0165C80.296 16.1787 79.9358 16.3434 79.5783 16.5056C79.5522 15.7048 79.5261 14.9015 79.5026 14.1006Z" fill="white"/>
<path d="M78.1769 14.8685C78.6179 14.61 79.0589 14.354 79.5026 14.1006C79.5261 14.9014 79.5522 15.7048 79.5783 16.5056C79.1555 16.6906 78.7327 16.8756 78.31 17.0581C78.263 16.3282 78.2186 15.5983 78.1769 14.8685Z" fill="white"/>
<path d="M78.216 36.4223C78.7144 36.2373 79.2155 36.0573 79.7192 35.885C79.8053 36.4501 79.8914 37.0153 79.9775 37.5804C79.4034 37.7426 78.8293 37.9048 78.2578 38.0619C78.2421 37.5145 78.2291 36.9697 78.216 36.4223Z" fill="white"/>
<path d="M76.0787 16.0823C76.7729 15.6692 77.4775 15.2739 78.1769 14.8684C78.2186 15.5983 78.263 16.3281 78.31 17.058C77.6367 17.3646 76.9608 17.6713 76.2823 17.9678C76.2144 17.3393 76.1466 16.7108 76.0787 16.0823Z" fill="white"/>
<path d="M76.3606 37.1242C76.9765 36.8885 77.5976 36.6579 78.2161 36.4222C78.2291 36.9696 78.2421 37.5145 78.2578 38.0619C77.6445 38.2342 77.0339 38.4066 76.4206 38.5713C76.3997 38.0872 76.3789 37.6057 76.3606 37.1242Z" fill="white"/>
<path d="M76.251 41.3666C76.9634 41.1537 77.6732 40.9332 78.383 40.7102C78.4483 41.1968 78.5161 41.6808 78.584 42.1674C77.8585 42.3347 77.1487 42.5982 76.3997 42.654L76.2849 42.5627C76.2745 42.1851 76.264 41.8101 76.2536 41.435L76.251 41.3666Z" fill="white"/>
<path d="M85.51 15.4032C87.3863 16.3966 89.1661 17.5548 91.0137 18.5989C90.9537 19.017 90.8963 19.4352 90.8571 19.8559C88.9808 19.0348 87.0862 18.2466 85.2229 17.3951C85.5935 16.7869 85.5909 16.0824 85.51 15.4032Z" fill="white"/>
<path d="M85.7031 24.0399C87.5768 24.9294 89.401 25.9203 91.2643 26.8352C91.2199 27.19 91.1834 27.5423 91.1416 27.897C89.3123 27.2939 87.5116 26.6147 85.7188 25.9153C85.7136 25.2893 85.7083 24.6633 85.7031 24.0399Z" fill="white"/>
<path d="M85.7501 36.876C87.6134 37.5146 89.4192 38.3078 91.2773 38.9667C91.2251 39.2404 91.1729 39.5167 91.1233 39.7904C89.2966 39.4356 87.5142 38.8831 85.7214 38.3915C85.7292 37.8871 85.737 37.3803 85.7501 36.876Z" fill="white"/>
<path d="M53.8629 50.0566C55.2747 49.4965 56.6944 48.9542 58.1218 48.4296C58.1192 48.8173 58.114 49.2025 58.1114 49.5902V49.646C56.6918 49.978 55.3034 50.4418 53.8629 50.685C53.8629 50.5279 53.8629 50.2137 53.8629 50.0566Z" fill="white"/>
<path d="M46.7073 64.0584C50.7835 63.3234 54.7998 62.3148 58.8551 61.4861C58.8212 61.704 58.7534 62.145 58.7168 62.3629C54.7241 62.9813 50.6974 63.4045 46.7073 64.0584Z" fill="white"/>
<path d="M102.512 67.9585C106.807 68.3995 111.048 69.2991 115.359 69.5855C113.691 69.6716 112.042 69.3523 110.382 69.2915C108.237 69.1293 106.092 69.0026 103.944 68.8759L103.89 68.8024C103.796 68.6808 103.61 68.4375 103.516 68.3158C103.188 68.179 102.851 68.0599 102.512 67.9585Z" fill="white"/>
<path d="M94.1844 16.5031C96.2225 17.7144 98.198 19.0196 100.231 20.2385C98.0545 19.4681 96.0346 18.3226 93.9391 17.3698C94.02 17.0809 94.1009 16.792 94.1844 16.5031Z" fill="white"/>
<path d="M79.7114 35.8293C80.2829 35.6316 80.8544 35.4314 81.4207 35.2185C81.4207 35.8799 81.4207 36.5439 81.4207 37.2104C80.9379 37.3295 80.4577 37.4562 79.9775 37.5804C79.8914 37.0153 79.8053 36.4502 79.7192 35.885L79.7114 35.8293Z" fill="white"/>
<path d="M78.7902 66.5976C79.6592 66.4557 80.5412 66.3974 81.4207 66.3391C81.4207 66.5748 81.4181 67.0487 81.4181 67.2844C80.6299 67.3376 79.8418 67.3934 79.0511 67.3832C79.346 67.216 79.6357 67.036 79.9253 66.8612C79.5469 66.7674 79.1686 66.6787 78.7902 66.5976Z" fill="white"/>
<path d="M106.711 71.1871C111.34 71.4938 115.975 71.7649 120.602 72.1172C115.972 72.3225 111.343 72.548 106.713 72.7457C106.711 72.2262 106.708 71.7067 106.711 71.1871Z" fill="white"/>
<path d="M91.0138 18.5989C94.0462 20.2816 96.9846 22.119 100.007 23.822C98.0546 23.1555 96.2278 22.1899 94.3202 21.4119C93.1745 20.8746 91.9611 20.4692 90.8572 19.8559C90.8963 19.4352 90.9537 19.017 91.0138 18.5989Z" fill="white"/>
<path d="M90.9694 22.6714C94.1245 24.1919 97.1047 26.047 100.239 27.6157C98.0859 26.9036 96.0347 25.9203 93.9131 25.122C92.924 24.6709 91.8436 24.3947 90.912 23.8447C90.9224 23.4545 90.9407 23.0617 90.9694 22.6714Z" fill="white"/>
<path d="M91.2773 38.9667C94.2079 40.026 97.089 41.212 100.022 42.2739C97.0264 41.582 94.0879 40.6494 91.1025 39.912L91.1234 39.7903C91.1729 39.5166 91.2251 39.2404 91.2773 38.9667Z" fill="white"/>
<path d="M88.9391 58.7921C92.2272 59.2635 95.4788 59.9604 98.7513 60.5078C95.3144 60.3152 91.8906 59.8489 88.4667 59.484L88.5659 59.4434C88.8164 59.3471 89.067 59.2483 89.3149 59.1469C89.2209 59.0582 89.033 58.8808 88.9391 58.7921Z" fill="white"/>
<path d="M76.8825 19.8786C77.5427 19.5035 78.2186 19.1538 78.9076 18.8269C79.0224 19.5568 79.0146 20.2993 78.9076 21.0292C78.2865 21.2725 77.6706 21.5284 77.0547 21.7793C76.9973 21.1457 76.9399 20.5122 76.8825 19.8786Z" fill="white"/>
<path d="M76.8016 24.1818C77.4906 23.8219 78.1926 23.4848 78.9024 23.1655C78.9755 23.827 79.0459 24.4859 79.119 25.1473C78.4431 25.4083 77.7724 25.6694 77.0939 25.9152C76.9948 25.3374 76.8982 24.7596 76.8016 24.1818Z" fill="white"/>
<path d="M76.7729 28.4191C77.4879 28.12 78.1977 27.8083 78.8997 27.4789C78.9598 28.1175 79.0172 28.7561 79.0746 29.3948C78.4352 29.6102 77.8011 29.8357 77.1696 30.0664L77.1565 30.0081C77.0312 29.4961 76.9086 28.9842 76.7859 28.4723L76.7729 28.4191Z" fill="white"/>
<path d="M74.4973 67.0081C75.9196 66.8003 77.3549 66.6862 78.7902 66.5975C79.1686 66.6786 79.547 66.7673 79.9254 66.8611C79.6357 67.036 79.346 67.2159 79.0511 67.3832C77.7046 67.4136 76.3319 67.6442 75.0036 67.5352C74.8757 67.4034 74.6226 67.1399 74.4973 67.0081Z" fill="white"/>
<path d="M85.5074 19.6683C87.3602 20.5959 89.1269 21.6755 90.972 22.6207L90.9693 22.6714C90.9406 23.0617 90.9224 23.4545 90.9119 23.8448C89.0852 23.1428 87.2689 22.418 85.463 21.6628C85.4761 20.9988 85.4891 20.3323 85.5074 19.6683Z" fill="white"/>
<path d="M73.644 21.5817C74.74 21.0419 75.8126 20.4641 76.8825 19.8787C76.9399 20.5122 76.9974 21.1458 77.0548 21.7794C76.0109 22.1848 74.9932 22.6435 73.9493 23.0515C73.8527 22.5827 73.7562 22.1164 73.6596 21.6476L73.644 21.5817Z" fill="white"/>
<path d="M73.764 25.6491C74.7922 25.1955 75.7969 24.6886 76.8017 24.1818C76.8982 24.7596 76.9948 25.3374 77.0939 25.9152C76.0005 26.308 74.9279 26.7591 73.8345 27.1468C73.811 26.6729 73.7875 26.199 73.7667 25.7251L73.764 25.6491Z" fill="white"/>
<path d="M73.7536 29.8332C74.7531 29.3593 75.7656 28.9107 76.786 28.4723C76.9087 28.9842 77.0313 29.4961 77.1566 30.008C76.0553 30.449 74.9305 30.8317 73.8032 31.2067C73.7849 30.748 73.7693 30.2919 73.7536 29.8332Z" fill="white"/>
<path d="M62.0703 27.854C65.9169 25.7556 69.7739 23.6775 73.6597 21.6476C73.7562 22.1164 73.8528 22.5827 73.9493 23.0516C70.9247 24.2807 67.9184 25.5529 64.8965 26.7845C63.9596 27.1545 63.0515 27.6056 62.0703 27.854Z" fill="white"/>
<path d="M61.8406 31.6427C65.789 29.6229 69.7713 27.6563 73.7666 25.7252C73.7875 26.1991 73.811 26.673 73.8345 27.1469C69.8287 28.6295 65.8699 30.2311 61.8406 31.6427Z" fill="white"/>
<path d="M62.0598 35.1881C65.9351 33.3559 69.8626 31.6326 73.7536 29.8333C73.7693 30.292 73.7849 30.7481 73.8032 31.2068C69.8809 32.5069 66.0212 34.0046 62.0598 35.1881Z" fill="white"/>
<path d="M62.3521 46.0955C65.9586 44.8031 69.6068 43.6196 73.2551 42.4386C73.289 42.6895 73.3569 43.1963 73.3908 43.4472C69.706 44.3089 66.063 45.353 62.3521 46.0955Z" fill="white"/>
<path d="M57.7565 25.5909C59.0274 24.7799 60.2513 23.9056 61.5352 23.1174C61.4909 23.8929 61.6866 24.7343 61.4387 25.4692C60.2695 26.1078 59.0404 26.64 57.8504 27.2407C57.8191 26.6907 57.7904 26.1408 57.7565 25.5909Z" fill="white"/>
<path d="M57.7773 32.1266C59.0561 31.4551 60.2643 30.6669 61.5378 29.9827C61.5457 30.6821 61.5457 31.3816 61.5378 32.081C60.4366 32.5372 59.3588 33.0567 58.234 33.4622C58.1323 33.4166 57.9287 33.3228 57.8269 33.2747C57.8008 32.9072 57.7904 32.5397 57.7773 32.1723V32.1266Z" fill="white"/>
<path d="M57.7826 35.4162C59.0561 34.7877 60.2696 34.0528 61.5379 33.4192C61.5457 34.0781 61.5457 34.7395 61.5405 35.401C60.3139 35.8977 59.0796 36.3767 57.8426 36.8531C57.8243 36.3893 57.8061 35.9281 57.7852 35.4643L57.7826 35.4162Z" fill="white"/>
<path d="M57.7982 38.7233C59.0352 38.0821 60.2826 37.4587 61.5379 36.853C61.5431 37.4765 61.5457 38.0973 61.5457 38.7208C60.3061 39.1972 59.0404 39.6027 57.8087 40.0943C57.8009 39.6382 57.7904 39.1795 57.7982 38.7233Z" fill="white"/>
<path d="M57.138 68.3868C58.6046 68.1917 60.066 67.9611 61.5326 67.771C61.5352 68.0624 61.5379 68.3539 61.5405 68.6453C60.554 68.6859 59.5728 68.8202 58.5864 68.8202C58.101 68.6833 57.6234 68.5186 57.138 68.3868Z" fill="white"/>
<path d="M101.257 23.1124C102.355 23.8093 103.415 24.5544 104.516 25.2488C104.409 25.8013 104.305 26.3563 104.2 26.9087C103.245 26.4044 102.275 25.928 101.288 25.4896C101.239 24.6963 101.241 23.9031 101.257 23.1124Z" fill="white"/>
<path d="M101.257 29.9854C102.358 30.591 103.415 31.2677 104.529 31.8531V31.9063C104.521 32.4334 104.516 32.9631 104.513 33.4953C103.441 33.0062 102.353 32.55 101.262 32.1065C101.246 31.3995 101.251 30.6924 101.257 29.9854Z" fill="white"/>
<path d="M101.254 33.4142C102.363 33.9971 103.446 34.6205 104.56 35.1882C104.524 35.6773 104.49 36.1689 104.456 36.658C103.381 36.2551 102.319 35.8268 101.251 35.4137C101.254 34.7472 101.254 34.0807 101.254 33.4142Z" fill="white"/>
<path d="M101.254 40.2871C102.321 40.761 103.368 41.2755 104.44 41.7418C104.349 42.1625 104.26 42.5831 104.171 43.0064C103.195 42.6997 102.222 42.3779 101.254 42.0535C101.254 41.463 101.254 40.8751 101.254 40.2871Z" fill="white"/>
<path d="M101.254 43.7285C102.277 44.134 103.279 44.5826 104.299 44.9982C104.297 45.4163 104.297 45.837 104.299 46.2602C103.276 45.9891 102.261 45.685 101.251 45.3732C101.251 44.8233 101.251 44.2759 101.254 43.7285Z" fill="white"/>
<path d="M101.257 47.1575C102.272 47.5325 103.276 47.9355 104.297 48.3055C104.289 48.7084 104.284 49.1139 104.281 49.5169C103.276 49.2178 102.256 48.9796 101.249 48.6958C101.251 48.1813 101.251 47.6694 101.257 47.1575Z" fill="white"/>
<path d="M101.257 50.5989C102.269 50.9233 103.269 51.2907 104.284 51.6151C104.289 51.9902 104.297 52.3652 104.305 52.7403C103.287 52.4844 102.261 52.2715 101.243 52.013C101.249 51.5416 101.251 51.0702 101.257 50.5989Z" fill="white"/>
<path d="M104.516 25.2488C105.863 26.0648 107.131 26.9923 108.467 27.8261C108.256 28.1277 108.047 28.4293 107.838 28.7308C106.64 28.0922 105.395 27.5499 104.2 26.9087C104.305 26.3562 104.409 25.8012 104.516 25.2488Z" fill="white"/>
<path d="M104.529 31.9062C105.941 32.5728 107.222 33.4673 108.6 34.1972C108.457 34.4608 108.318 34.7269 108.18 34.993C106.912 34.6027 105.722 34.0223 104.513 33.4952C104.516 32.963 104.521 32.4334 104.529 31.9062Z" fill="white"/>
<path d="M104.56 35.1881C105.839 35.8191 107.063 36.549 108.331 37.2003C108.381 37.5627 108.43 37.9276 108.48 38.2951C107.141 37.7604 105.8 37.2307 104.451 36.7188L104.456 36.658C104.49 36.1689 104.524 35.6772 104.56 35.1881Z" fill="white"/>
<path d="M53.247 28.528C54.7684 27.5751 56.2116 26.5057 57.7565 25.5908C57.7904 26.1408 57.8191 26.6907 57.8504 27.2406L57.853 27.304C56.3968 28.006 54.9407 28.7079 53.5001 29.4403C53.414 29.1362 53.3305 28.8321 53.247 28.528Z" fill="white"/>
<path d="M52.8765 34.9396C54.5414 34.0704 56.0837 32.9933 57.7774 32.1722C57.7904 32.5397 57.8009 32.9072 57.8269 33.2746C57.9287 33.3228 58.1323 33.4166 58.2341 33.4622C56.7361 34.2833 55.0842 34.8053 53.5419 35.5504C53.3201 35.3477 53.0983 35.1424 52.8765 34.9396Z" fill="white"/>
<path d="M53.5759 40.7861C54.9929 40.1146 56.3499 39.3315 57.7983 38.7233C57.7904 39.1794 57.8009 39.6381 57.8087 40.0943C56.4204 40.6265 55.0294 41.1714 53.5941 41.5794C53.5889 41.3817 53.5811 40.9838 53.5759 40.7861Z" fill="white"/>
<path d="M47.4589 69.5803C50.7079 69.3852 53.9073 68.7314 57.138 68.3867C57.6234 68.5185 58.101 68.6832 58.5864 68.8201C55.935 69.1419 53.2549 69.1901 50.593 69.4334C49.5518 69.5423 48.5053 69.6108 47.4589 69.5803Z" fill="white"/>
<path d="M58.007 28.7233C59.1918 28.0137 60.34 27.2483 61.5352 26.554C61.5431 27.294 61.5431 28.0314 61.5248 28.7714C60.3896 29.2808 59.2596 29.8054 58.1245 30.3173C58.0853 29.7851 58.0462 29.2529 58.007 28.7233Z" fill="white"/>
<path d="M58.0201 41.8887C59.2022 41.3793 60.3531 40.804 61.5327 40.2896C61.5379 40.8724 61.5405 41.4553 61.5457 42.0357C60.4079 42.4462 59.2388 42.7757 58.1062 43.2014C58.0775 42.763 58.0488 42.3271 58.0201 41.8887Z" fill="white"/>
<path d="M58.054 45.1605C59.2309 44.7195 60.3661 44.1823 61.5352 43.7286C61.5378 44.2735 61.5404 44.8209 61.5404 45.3683C60.3896 45.7332 59.2179 46.0424 58.067 46.4149C58.0618 46.0044 58.0592 45.5938 58.054 45.1858V45.1605Z" fill="white"/>
<path d="M58.1218 48.4296C59.2727 48.0444 60.3896 47.5654 61.5352 47.1625C61.5378 47.6719 61.5405 48.1812 61.5431 48.6906C60.4027 49.0074 59.257 49.3014 58.1114 49.5903C58.114 49.2025 58.1192 48.8173 58.1218 48.4296Z" fill="white"/>
<path d="M57.7695 51.8636C59.0326 51.4657 60.2696 50.9968 61.5326 50.5964C61.5378 51.0653 61.5431 51.5366 61.5483 52.008C60.3348 52.3172 59.1083 52.5757 57.887 52.857C57.8478 52.525 57.8087 52.1955 57.7695 51.8636Z" fill="white"/>
<path d="M58.0201 55.0795C59.2049 54.7526 60.3609 54.3344 61.5614 54.0557C61.5431 54.4916 61.53 54.9274 61.5144 55.3633C60.3688 55.5788 59.2231 55.7916 58.0853 56.0374C58.0697 55.7967 58.0357 55.3177 58.0201 55.0795Z" fill="white"/>
<path d="M101.254 26.5437C102.46 27.2685 103.637 28.0389 104.845 28.7586C104.8 29.2858 104.759 29.8129 104.717 30.34C103.561 29.8357 102.423 29.2883 101.264 28.789C101.243 28.0414 101.249 27.2913 101.254 26.5437Z" fill="white"/>
<path d="M101.254 36.853C102.538 37.4663 103.79 38.1354 105.074 38.7512C105.043 39.1997 105.014 39.6458 104.988 40.0943C103.751 39.6204 102.496 39.1921 101.254 38.7385C101.251 38.11 101.251 37.4815 101.254 36.853Z" fill="white"/>
<path d="M91.2643 26.8352C94.3645 28.2949 97.3578 29.9625 100.468 31.4045C97.3291 30.3477 94.2679 29.0755 91.1312 28.001L91.1416 27.8971C91.1834 27.5423 91.2199 27.19 91.2643 26.8352Z" fill="white"/>
<path d="M109.13 31.3816C111.238 32.6335 113.308 33.9463 115.388 35.2438C113.274 34.4708 111.272 33.4191 109.234 32.4764C109.198 32.1115 109.164 31.7465 109.13 31.3816Z" fill="white"/>
<path d="M91.567 51.1641C94.5472 51.8965 97.4935 52.7556 100.492 53.4272C97.4334 52.9811 94.4037 52.3526 91.3478 51.8838L91.3608 51.8331C91.413 51.6658 91.5148 51.3313 91.567 51.1641Z" fill="white"/>
<path d="M85.2908 28.1124C86.9531 28.8423 88.5737 29.6609 90.2334 30.3983C90.176 30.7886 90.1212 31.1814 90.0664 31.5717C88.378 30.9635 86.6713 30.4059 84.962 29.856L84.9828 29.7952C85.176 29.2528 85.2464 28.6826 85.2908 28.1124Z" fill="white"/>
<path d="M85.236 32.3851C86.9009 33.0364 88.5215 33.7916 90.1786 34.4632C90.1786 34.7952 90.1786 35.1247 90.1838 35.4566L90.0795 35.5504C88.4484 35.0816 86.82 34.5925 85.2047 34.0755C85.2151 33.5103 85.2229 32.9477 85.236 32.3851Z" fill="white"/>
<path d="M85.2307 40.9662C86.9975 41.5085 88.7198 42.175 90.4787 42.7427C90.437 43.0265 90.3952 43.3104 90.3561 43.5942C88.6233 43.3002 86.927 42.839 85.2229 42.4285C85.2229 41.9393 85.2255 41.4528 85.2307 40.9662Z" fill="white"/>
<path d="M86.0919 58.265C87.0418 58.4399 87.9996 58.5691 88.939 58.7921C89.033 58.8808 89.2209 59.0582 89.3148 59.1469C89.0669 59.2483 88.8164 59.3471 88.5659 59.4434C87.7569 59.4384 86.9583 59.3117 86.1572 59.2179C86.1415 58.9797 86.1076 58.5032 86.0919 58.265Z" fill="white"/>
<path d="M46.9317 32.6995C48.9959 31.2549 51.1228 29.889 53.247 28.5281C53.3305 28.8322 53.414 29.1363 53.5002 29.4404C51.3289 30.5631 49.1316 31.6325 46.9317 32.6995Z" fill="white"/>
<path d="M53.6228 31.3868C55.1129 30.5429 56.5065 29.5469 58.007 28.7233C58.0461 29.2529 58.0853 29.7851 58.1244 30.3173L58.127 30.3807C56.6996 30.9483 55.3713 31.7669 53.8916 32.2003C53.8394 32.142 53.7376 32.0254 53.6854 31.9671C53.6593 31.7745 53.6385 31.5794 53.6228 31.3868Z" fill="white"/>
<path d="M53.4114 37.7477C54.8937 37.0305 56.269 36.1131 57.7852 35.4644C57.8061 35.9281 57.8243 36.3894 57.8426 36.8531L57.8452 36.9165C56.3603 37.4715 54.8911 38.067 53.4114 38.6398C53.4114 38.3407 53.4114 38.0442 53.4114 37.7477Z" fill="white"/>
<path d="M104.845 28.7587C106.306 29.5823 107.684 30.5352 109.13 31.3816C109.164 31.7465 109.198 32.1115 109.234 32.4764C107.734 31.7668 106.223 31.0851 104.712 30.4059L104.717 30.34C104.759 29.8129 104.8 29.2858 104.845 28.7587Z" fill="white"/>
<path d="M105.074 38.7512C106.773 39.514 108.386 40.439 110.077 41.2221C110.035 41.3716 109.954 41.6707 109.913 41.8202C108.232 41.3564 106.611 40.7127 104.988 40.0944C105.014 39.6458 105.043 39.1998 105.074 38.7512Z" fill="white"/>
<path d="M53.6933 43.8375C55.1547 43.2318 56.5534 42.4893 58.0201 41.8887C58.0488 42.3271 58.0775 42.763 58.1062 43.2014C56.6396 43.7083 55.1677 44.2177 53.6672 44.6231C53.675 44.3621 53.6828 44.0985 53.6933 43.8375Z" fill="white"/>
<path d="M54.0273 46.8279C55.3843 46.3109 56.6839 45.6646 58.054 45.1857C58.0592 45.5937 58.0618 46.0042 58.067 46.4148C56.6448 46.8735 55.2147 47.3296 53.7507 47.6515C53.842 47.3778 53.9333 47.1016 54.0273 46.8279Z" fill="white"/>
<path d="M53.0878 53.4625C54.6406 52.9075 56.1907 52.3449 57.7695 51.8634C57.8087 52.1954 57.8478 52.5248 57.887 52.8568L57.8922 52.9126C56.6265 53.1255 55.4 53.607 54.1134 53.6678C53.7716 53.5968 53.4297 53.5284 53.0878 53.4625Z" fill="white"/>
<path d="M90.2334 30.3983C93.7538 31.9391 97.1751 33.6878 100.716 35.1881C97.1646 33.9868 93.6103 32.7932 90.0664 31.5717C90.1212 31.1814 90.176 30.7886 90.2334 30.3983Z" fill="white"/>
<path d="M78.9207 31.7871C79.7557 31.4577 80.5908 31.1231 81.4207 30.781C81.4181 31.4881 81.4207 32.1926 81.4181 32.8996C80.7657 33.0922 80.1133 33.295 79.4661 33.4952C79.4165 32.8895 79.5183 32.1748 78.9207 31.7871Z" fill="white"/>
<path d="M47.1536 38.2798C49.009 37.0887 50.9558 36.0294 52.8765 34.9397C53.0983 35.1424 53.3201 35.3477 53.542 35.5505C51.4281 36.4932 49.3091 37.4309 47.1536 38.2798Z" fill="white"/>
<path d="M47.1979 41.0422C49.2856 39.9728 51.3159 38.7969 53.4115 37.7477C53.4115 38.0442 53.4115 38.3407 53.4115 38.6397V38.7031C51.3238 39.4355 49.3378 40.4593 47.1979 41.0422Z" fill="white"/>
<path d="M110.077 41.2222C111.886 42.0382 113.639 42.9683 115.416 43.8477C113.511 43.3966 111.742 42.5324 109.874 41.9622L109.913 41.8203C109.954 41.6707 110.035 41.3717 110.077 41.2222Z" fill="white"/>
<path d="M79.4139 44.6662C80.0872 44.4964 80.7578 44.3139 81.4233 44.1112C81.4181 44.6713 81.4181 45.2339 81.4129 45.799C80.7526 45.9308 80.0924 46.0702 79.4321 46.207C79.4269 45.7154 79.4217 45.2237 79.4165 44.7346L79.4139 44.6662Z" fill="white"/>
<path d="M79.4061 49.0276C80.0794 48.8857 80.7527 48.7336 81.4233 48.5613C81.4181 49.0707 81.4181 49.5826 81.4155 50.092C80.7422 50.2085 80.0716 50.3327 79.4009 50.4544C79.4009 50.0134 79.4035 49.575 79.4061 49.134V49.0276Z" fill="white"/>
<path d="M78.9077 53.5031C79.9854 53.4473 81.0789 52.7631 82.141 53.1153C81.3633 53.1103 81.2146 53.7869 81.3946 54.3926C80.6796 54.494 79.9672 54.6029 79.2547 54.7094C79.1425 54.3242 79.0303 53.939 78.9233 53.5538L78.9077 53.5031Z" fill="white"/>
<path d="M47.7016 55.1807C49.5153 54.6714 51.2638 53.8908 53.0879 53.4625C53.4298 53.5284 53.7716 53.5968 54.1135 53.6678C53.4506 54.124 52.5973 54.1265 51.8405 54.347C50.46 54.6131 49.1186 55.1275 47.7016 55.1807Z" fill="white"/>
<path d="M79.0929 57.8214C79.868 57.7099 80.6404 57.5857 81.4103 57.4514C81.4207 57.6719 81.439 58.1154 81.4468 58.3384C81.5825 58.4524 81.713 58.5741 81.8382 58.7033C81.8304 58.7464 81.8095 58.83 81.8017 58.8731C80.951 58.5868 80.0663 58.8681 79.2051 58.934C79.179 58.6704 79.1242 58.1407 79.0981 57.8772L79.0929 57.8214Z" fill="white"/>
<path d="M47.4223 35.2565C49.4448 33.9032 51.5507 32.6665 53.6228 31.3867C53.6385 31.5793 53.6593 31.7745 53.6854 31.9671C53.7376 32.0254 53.8394 32.1419 53.8916 32.2002L54.0038 32.3244C51.7778 33.2342 49.6718 34.405 47.4223 35.2565Z" fill="white"/>
<path d="M77.1513 32.5525C77.7437 32.3016 78.3361 32.0532 78.9206 31.7871C79.5182 32.1748 79.4165 32.8895 79.4661 33.4952C78.7066 33.7283 77.9525 33.9716 77.1931 34.1997C77.18 33.6498 77.1644 33.1024 77.1513 32.5525Z" fill="white"/>
<path d="M77.2714 53.8858C77.8194 53.7642 78.37 53.6552 78.9233 53.5538C79.0303 53.939 79.1425 54.3242 79.2547 54.7095C78.5997 54.8007 77.9499 54.897 77.2975 54.9882C77.287 54.6208 77.2792 54.2533 77.2714 53.8858Z" fill="white"/>
<path d="M74.0145 33.8627C75.0506 33.404 76.1127 33.0036 77.1513 32.5525C77.1644 33.1024 77.18 33.6498 77.1931 34.1998C76.1362 34.5064 75.1054 34.8941 74.0328 35.1501C74.025 34.7218 74.0197 34.291 74.0145 33.8627Z" fill="white"/>
<path d="M74.0485 54.6081C75.1028 54.2913 76.204 54.1621 77.2714 53.8859C77.2792 54.2533 77.287 54.6208 77.2975 54.9883C76.2954 55.12 75.2959 55.2848 74.2938 55.414C74.2311 55.2113 74.1085 54.8109 74.0485 54.6081Z" fill="white"/>
<path d="M61.8249 38.9692C65.8516 37.1876 69.9591 35.5809 74.0145 33.8627C74.0197 34.291 74.0249 34.7218 74.0328 35.1501L74.0354 35.1957C69.9539 36.4172 65.9142 37.773 61.8249 38.9692Z" fill="white"/>
<path d="M62.0023 42.5273C65.8463 41.0397 69.7216 39.6332 73.5735 38.1709C73.5656 38.5688 73.5578 38.9692 73.5526 39.3696C69.6981 40.4036 65.8881 41.6099 62.0023 42.5273Z" fill="white"/>
<path d="M61.8145 49.8665C65.7237 48.7692 69.5964 47.5552 73.5109 46.4706C73.5213 46.7164 73.5422 47.203 73.5526 47.4488C69.6355 48.2344 65.7576 49.2177 61.8145 49.8665Z" fill="white"/>
<path d="M108.6 34.1971C110.816 35.4567 113.049 36.7035 115.202 38.0593C112.799 37.1749 110.508 36.0294 108.112 35.1196L108.18 34.9929C108.318 34.7268 108.457 34.4607 108.6 34.1971Z" fill="white"/>
<path d="M90.1786 34.4633C93.6338 35.8267 96.9846 37.4385 100.474 38.7284C97.0498 37.7831 93.6703 36.6554 90.2622 35.662L90.1839 35.4567C90.1786 35.1247 90.1786 34.7952 90.1786 34.4633Z" fill="white"/>
<path d="M90.4788 42.7427C93.4955 43.7082 96.4627 44.8182 99.4768 45.7914C96.4026 45.2389 93.3989 44.3393 90.3405 43.7032L90.3561 43.5942C90.3953 43.3103 90.437 43.0265 90.4788 42.7427Z" fill="white"/>
<path d="M108.331 37.2003C110.868 38.5333 113.386 39.9044 115.902 41.2754C113.441 40.249 110.936 39.3291 108.48 38.2951C108.43 37.9276 108.381 37.5627 108.331 37.2003Z" fill="white"/>
<path d="M47.4145 43.8527C49.4448 42.7883 51.4986 41.7569 53.5758 40.7863C53.5811 40.9839 53.5889 41.3818 53.5941 41.5795L53.5967 41.7189C51.5064 42.3474 49.5231 43.2876 47.4145 43.8527Z" fill="white"/>
<path d="M47.6415 46.6379C49.6223 45.6368 51.663 44.7423 53.6933 43.8375C53.6829 44.0986 53.675 44.3621 53.6672 44.6231L53.6646 44.7499C51.6369 45.3201 49.6927 46.1513 47.6415 46.6379Z" fill="white"/>
<path d="M47.1874 49.6434C49.4787 48.7311 51.7256 47.7174 54.0273 46.8279C53.9333 47.1016 53.842 47.3778 53.7507 47.6515L53.6985 47.8036C51.509 48.3535 49.3978 49.1847 47.1874 49.6434Z" fill="white"/>
<path d="M47.4171 52.4489C49.5596 51.6379 51.6787 50.7585 53.8629 50.0565C53.8629 50.2136 53.8629 50.5279 53.8629 50.685L53.8655 50.8396C51.6943 51.2932 49.5988 52.0459 47.4171 52.4489Z" fill="white"/>
<path d="M47.1823 58.2168C49.2439 57.7125 51.2428 56.9269 53.3123 56.4935C53.6646 56.562 54.0169 56.6304 54.3692 56.7013C53.7272 57.122 52.9156 57.0992 52.1901 57.2842C50.5174 57.5706 48.8759 58.0546 47.1823 58.2168Z" fill="white"/>
<path d="M78.2135 69.7705C78.7641 69.735 79.3173 69.702 79.8706 69.6716C79.8967 71.0427 79.9019 72.4112 79.8862 73.7822C79.1007 73.7619 78.3152 73.729 77.5323 73.6833C77.7907 73.4933 78.2683 73.3919 78.2317 72.989C78.31 71.917 78.2161 70.8425 78.2135 69.7705Z" fill="white"/>
<path d="M104.44 41.7417C105.727 42.2764 106.961 42.9151 108.24 43.4675C108.219 43.6931 108.183 44.1416 108.164 44.3646C106.836 43.911 105.5 43.4827 104.161 43.057L104.172 43.0063C104.26 42.5831 104.349 42.1624 104.44 41.7417Z" fill="white"/>
<path d="M104.299 44.9982C105.63 45.4898 106.914 46.098 108.232 46.6252C108.196 46.8254 108.123 47.2232 108.083 47.4235C106.82 47.0661 105.57 46.6708 104.299 46.3439V46.2602C104.297 45.837 104.297 45.4163 104.299 44.9982Z" fill="white"/>
<path d="M84.9932 45.1857C86.4912 45.5861 87.9578 46.0879 89.4479 46.5111C89.4244 46.7417 89.3774 47.2055 89.3539 47.4361C87.8925 47.1598 86.439 46.8431 84.975 46.582L84.9776 46.5187C84.9802 46.0752 84.9854 45.6292 84.9932 45.1857Z" fill="white"/>
<path d="M89.448 46.5111C92.9814 47.4944 96.4444 48.7134 100.007 49.6105C98.5791 49.4813 97.2116 49.0378 95.8076 48.7919C93.6599 48.3307 91.4809 47.9835 89.354 47.4361C89.3775 47.2055 89.4245 46.7417 89.448 46.5111Z" fill="white"/>
<path d="M88.7772 67.036C92.5951 67.3224 96.3896 67.9027 100.221 68.0396C98.9627 68.1384 97.7048 67.999 96.4496 67.9534C93.6677 67.7583 90.8754 67.7862 88.0961 67.5809C88.2658 67.4466 88.6076 67.1729 88.7772 67.036Z" fill="white"/>
<path d="M98.626 70.6702C99.7821 70.731 100.933 70.8222 102.089 70.8932C102.052 71.6712 102.248 72.7635 101.22 72.9839C100.374 73.0524 99.5238 73.0524 98.6756 73.0929C98.6652 72.2845 98.6495 71.4786 98.626 70.6702Z" fill="white"/>
<path d="M104.297 48.3054C105.521 48.7185 106.705 49.2304 107.922 49.6587C107.621 49.8614 107.321 50.0667 107.021 50.2695C106.113 50.0008 105.189 49.7804 104.281 49.5168C104.284 49.1138 104.289 48.7084 104.297 48.3054Z" fill="white"/>
<path d="M104.284 51.6151C105.664 52.0231 106.993 52.5731 108.378 52.9633C108.175 53.1686 107.974 53.3739 107.775 53.5792C106.627 53.2598 105.453 53.0546 104.305 52.7403C104.297 52.3653 104.289 51.9902 104.284 51.6151Z" fill="white"/>
<path d="M81.4233 48.5614C82.4045 48.7971 83.3779 49.0759 84.3591 49.3166C84.3565 49.7398 84.3565 50.1656 84.3539 50.5888C83.3701 50.4444 82.3915 50.2746 81.4155 50.0921C81.4181 49.5827 81.4181 49.0708 81.4233 48.5614Z" fill="white"/>
<path d="M81.3946 54.3928C81.2145 53.7871 81.3633 53.1104 82.141 53.1155C82.9108 53.2878 83.6676 53.5311 84.4505 53.6629C84.4583 54.0532 84.4635 54.4435 84.474 54.8337C83.451 54.6639 82.4176 54.5448 81.3946 54.3928Z" fill="white"/>
<path d="M101.257 54.038C102.282 54.3269 103.297 54.6589 104.325 54.9427C104.255 55.2721 104.185 55.5991 104.119 55.9285C103.162 55.7156 102.196 55.5433 101.241 55.3304C101.246 54.8971 101.251 54.4663 101.257 54.038Z" fill="white"/>
<path d="M84.3591 49.3165C85.3821 49.5547 86.3868 49.8487 87.4072 50.0996C87.3393 50.4316 87.2715 50.7661 87.2062 51.1006C86.2537 50.9537 85.3064 50.7839 84.3539 50.6394V50.5887C84.3565 50.1655 84.3565 49.7397 84.3591 49.3165Z" fill="white"/>
<path d="M84.4504 53.6627C85.5856 53.8832 86.7078 54.1696 87.8404 54.3977C87.8508 54.6308 87.8717 55.0946 87.8795 55.3277C86.7495 55.1301 85.6065 55.0185 84.4739 54.8335C84.4635 54.4433 84.4583 54.053 84.4504 53.6627Z" fill="white"/>
<path d="M66.9633 70.4725C67.7775 70.4396 68.5917 70.3914 69.4059 70.3331C69.3954 71.3291 69.3955 72.3276 69.4007 73.3261C68.3855 73.283 67.3704 73.2298 66.3552 73.212C67.4408 72.7128 66.9085 71.4355 66.9685 70.5283L66.9633 70.4725Z" fill="white"/>
<path d="M107.922 49.6587C110.427 50.5482 112.864 51.605 115.396 52.421C112.577 51.8331 109.814 50.979 107.021 50.2694C107.321 50.0667 107.621 49.8614 107.922 49.6587Z" fill="white"/>
<path d="M106.805 62.0791C109.5 62.6392 112.173 63.3209 114.892 63.7872C112.175 63.6047 109.49 63.1131 106.792 62.7735C106.794 62.5429 106.799 62.3097 106.805 62.0791Z" fill="white"/>
<path d="M87.4072 50.0996C88.8007 50.4215 90.1682 50.8472 91.5669 51.164C91.5148 51.3313 91.413 51.6658 91.3608 51.833C89.9698 51.6176 88.5893 51.3566 87.1958 51.1463L87.2062 51.1006C87.2715 50.7661 87.3393 50.4316 87.4072 50.0996Z" fill="white"/>
<path d="M108.378 52.9634C110.894 53.7718 113.373 54.6841 115.897 55.4647C113.177 54.8945 110.474 54.2356 107.775 53.5792C107.974 53.3739 108.175 53.1687 108.378 52.9634Z" fill="white"/>
<path d="M46.9448 66.8156C49.3117 66.5343 51.6421 66.0097 53.996 65.6473C54.33 65.7462 54.6667 65.845 55.0007 65.9514C53.9151 66.2556 52.7747 66.2302 51.663 66.3823C50.0894 66.5217 48.5262 66.7877 46.9448 66.8156Z" fill="white"/>
<path d="M108.665 65.6499C110.993 65.9641 113.295 66.4761 115.623 66.8207C113.775 66.7194 111.943 66.4457 110.103 66.2809C109.046 66.139 107.953 66.1846 106.932 65.8552C107.509 65.7893 108.083 65.6981 108.665 65.6499Z" fill="white"/>
<path d="M102.089 70.8932C103.629 70.9768 105.168 71.0959 106.711 71.1872C106.708 71.7067 106.711 72.2262 106.713 72.7457C104.881 72.8065 103.052 72.9358 101.22 72.9839C102.248 72.7635 102.052 71.6712 102.089 70.8932Z" fill="white"/>
<path d="M87.8404 54.3977C91.8097 55.2264 95.745 56.2198 99.7351 56.9598C95.7815 56.4403 91.8331 55.8676 87.8795 55.3278C87.8717 55.0946 87.8508 54.6309 87.8404 54.3977Z" fill="white"/>
<path d="M77.026 58.1864C77.715 58.0825 78.4065 57.976 79.0981 57.8772C79.1242 58.1408 79.179 58.6704 79.2051 58.934C78.43 59.01 77.6576 59.1038 76.8825 59.1874C76.9164 58.9619 76.9791 58.5108 77.0104 58.2877L77.026 58.1864Z" fill="white"/>
<path d="M73.3438 70.0721C73.7927 70.0518 74.2442 69.9936 74.6904 70.0595C74.8235 70.1558 75.0897 70.3509 75.2228 70.4472C75.2411 71.4913 75.2437 72.5379 75.1967 73.5821C74.573 73.5516 73.9519 73.5238 73.3282 73.4934C73.3412 72.3529 73.3465 71.2125 73.3438 70.0721Z" fill="white"/>
<path d="M104.325 54.9426C105.422 55.2569 106.525 55.5635 107.603 55.9335C107.632 56.1135 107.689 56.4759 107.718 56.6583C106.518 56.4125 105.312 56.1971 104.119 55.9285C104.185 55.599 104.255 55.2721 104.325 54.9426Z" fill="white"/>
<path d="M104.028 61.5114C104.957 61.6735 105.873 61.9092 106.805 62.079C106.799 62.3096 106.794 62.5428 106.792 62.7734C105.575 62.5935 104.362 62.4161 103.141 62.297L103.209 62.2361C103.48 61.9903 103.751 61.7496 104.028 61.5114Z" fill="white"/>
<path d="M85.9354 62.5049C86.7913 62.6189 87.6473 62.738 88.5085 62.8445C88.5189 63.0675 88.5293 63.2905 88.5424 63.5161C87.4855 63.4654 86.4312 63.3843 85.3769 63.3209L85.403 63.2804C85.5804 63.0219 85.7579 62.7634 85.9354 62.5049Z" fill="white"/>
<path d="M53.3123 56.4936C54.8754 56.0019 56.436 55.5078 58.02 55.0795C58.0357 55.3177 58.0696 55.7967 58.0853 56.0374C56.8535 56.2782 55.627 56.6608 54.3692 56.7014C54.0169 56.6304 53.6646 56.562 53.3123 56.4936Z" fill="white"/>
<path d="M81.4102 57.4515C82.1122 57.5884 82.8377 57.6289 83.5162 57.8621L83.6075 58.0293C83.5945 58.2524 83.5684 58.7009 83.5553 58.9265C83.0021 58.8657 82.4489 58.8099 81.8982 58.7643L81.8382 58.7035C81.7129 58.5742 81.5825 58.4526 81.4468 58.3385C81.4389 58.1155 81.4207 57.672 81.4102 57.4515Z" fill="white"/>
<path d="M81.4207 61.894C82.107 61.9853 82.7933 62.0816 83.4823 62.1728C83.5031 62.4212 83.5449 62.9128 83.5632 63.1612C82.8481 63.1003 82.1331 63.0522 81.4207 62.9888C81.4207 62.7151 81.4207 62.1677 81.4207 61.894Z" fill="white"/>
<path d="M101.246 57.4692C102.186 57.7049 103.117 57.9634 104.059 58.1915C103.736 58.4424 103.415 58.6933 103.096 58.9467C102.486 58.8681 101.878 58.7794 101.272 58.6882C101.259 58.2827 101.251 57.8747 101.246 57.4692Z" fill="white"/>
<path d="M101.246 60.9082C102.175 61.1033 103.099 61.3213 104.028 61.5114C103.751 61.7496 103.48 61.9903 103.209 62.2362C102.559 62.1652 101.912 62.0816 101.264 62.003C101.257 61.6355 101.251 61.2706 101.246 60.9082Z" fill="white"/>
<path d="M101.249 64.3446C101.849 64.446 102.452 64.5296 103.044 64.669C103.245 64.7906 103.443 64.9199 103.637 65.0567C103.691 65.1834 103.804 65.4318 103.861 65.5585C102.992 65.4952 102.126 65.4065 101.259 65.3178C101.254 64.9934 101.251 64.669 101.249 64.3446Z" fill="white"/>
<path d="M83.6076 58.0293L83.7224 57.928C84.5209 57.895 85.3012 58.1763 86.0919 58.265C86.1076 58.5032 86.1415 58.9797 86.1572 59.2179C85.2908 59.1165 84.4191 59.038 83.5554 58.9265C83.5684 58.7009 83.5945 58.2523 83.6076 58.0293Z" fill="white"/>
<path d="M55.1521 59.0708C56.3082 58.8428 57.4303 58.4854 58.5786 58.2269C58.5838 58.4626 58.5968 58.9365 58.602 59.1722C57.5634 59.3496 56.5222 59.527 55.4861 59.7171C55.3687 59.5042 55.2591 59.2862 55.1521 59.0708Z" fill="white"/>
<path d="M73.8893 58.7693C74.9201 58.5539 75.9587 58.374 77.0104 58.2878C76.9791 58.5109 76.9164 58.962 76.8825 59.1875C75.7838 59.2965 74.693 59.4587 73.5944 59.5651C73.6909 59.299 73.7901 59.0329 73.8893 58.7693Z" fill="white"/>
<path d="M89.7428 70.1051C90.3065 70.138 90.8728 70.171 91.4391 70.2039C91.6296 71.2582 91.6557 72.3327 91.6061 73.4022C90.938 73.4326 90.2699 73.4655 89.6019 73.4985C89.8159 72.3783 89.8028 71.2379 89.7428 70.1051Z" fill="white"/>
<path d="M103.096 58.9467C103.415 58.6933 103.736 58.4424 104.059 58.1915C104.662 58.336 105.262 58.488 105.868 58.6325V58.6654C105.873 58.8606 105.883 59.2483 105.886 59.4434C104.934 59.3091 103.989 59.1419 103.039 58.9924L103.096 58.9467Z" fill="white"/>
<path d="M62.2972 60.7384C66.1673 60.12 70.0218 59.4105 73.8893 58.7693C73.7901 59.0328 73.6909 59.2989 73.5944 59.565C69.8234 59.9097 66.0786 60.5433 62.2972 60.7384Z" fill="white"/>
<path d="M105.868 58.6654C109.049 59.3699 112.147 60.4064 115.354 60.9969C113.929 60.9336 112.554 60.5407 111.15 60.338C109.391 60.082 107.645 59.7577 105.889 59.4992L105.886 59.4434C105.883 59.2483 105.873 58.8605 105.868 58.6654Z" fill="white"/>
<path d="M58.8551 61.486C59.7502 61.3086 60.6349 61.0982 61.5248 60.9056C61.5248 61.268 61.5274 61.6304 61.5274 61.9928C60.5905 62.1221 59.651 62.2209 58.7168 62.3628C58.7533 62.1449 58.8212 61.7039 58.8551 61.486Z" fill="white"/>
<path d="M59.5911 64.6817C60.2356 64.5727 60.8828 64.4561 61.53 64.3446C61.5274 64.6639 61.5274 64.9858 61.5274 65.3102C61.0733 65.3608 60.6193 65.4115 60.1678 65.4647C59.9747 65.2037 59.7816 64.9427 59.5911 64.6817Z" fill="white"/>
<path d="M62.0806 68.0446C66.23 67.852 70.3558 67.3096 74.4973 67.0081C74.6225 67.1398 74.8757 67.4034 75.0036 67.5352C72.3443 67.6923 69.6877 67.8317 67.0285 67.9457C65.3792 68.0091 63.7299 68.1687 62.0806 68.0446Z" fill="white"/>
<path d="M83.0021 69.6716C83.6832 69.7122 84.3643 69.7603 85.048 69.8034C85.0611 71.0984 85.0872 72.3934 85.0846 73.6884C84.3852 73.7163 83.6832 73.7492 82.9838 73.7797C83.0204 72.4112 83.023 71.0401 83.0021 69.6716Z" fill="white"/>
<path d="M55.1129 71.2125C56.4856 71.2353 57.8504 70.9717 59.2205 71.0478C59.3562 71.1517 59.6276 71.362 59.7633 71.4659C59.7685 71.9449 59.7789 72.4264 59.792 72.9079C58.2262 72.842 56.6604 72.7609 55.092 72.7153C55.6348 72.2946 55.6896 71.7016 55.1468 71.2581L55.1129 71.2125Z" fill="white"/>
<path d="M79.3434 62.1652C80.035 62.074 80.7266 61.9853 81.4207 61.894C81.4207 62.1677 81.4207 62.7151 81.4207 62.9888C80.8257 63.0243 80.2333 63.0725 79.6409 63.1232C79.5418 62.8038 79.4426 62.4845 79.3434 62.1652Z" fill="white"/>
<path d="M83.4823 62.1729C84.2991 62.2793 85.1159 62.3984 85.9354 62.5048C85.7579 62.7633 85.5805 63.0218 85.403 63.2803C84.7897 63.2474 84.1765 63.2094 83.5632 63.1612C83.5449 62.9129 83.5032 62.4212 83.4823 62.1729Z" fill="white"/>
<path d="M62.6809 70.7615C64.1109 70.6778 65.5358 70.5537 66.9685 70.5283C66.9085 71.4356 67.4408 72.7129 66.3552 73.2121C65.1261 73.1183 63.8943 73.0981 62.6626 73.0322C62.6704 72.2744 62.6783 71.5167 62.6809 70.7615Z" fill="white"/>
<path d="M75.1106 62.7506C75.8882 62.5833 76.6868 62.5352 77.4723 62.4186C77.561 62.6289 77.7411 63.0521 77.8298 63.2625C76.8903 63.3284 75.9561 63.4272 75.0166 63.4804C75.0401 63.298 75.0871 62.933 75.1106 62.7506Z" fill="white"/>
<path d="M62.0703 64.5626C66.3814 63.7592 70.7656 63.3639 75.1106 62.7506C75.0871 62.9331 75.0401 63.298 75.0167 63.4805C70.7029 63.8606 66.3788 64.1368 62.0703 64.5626Z" fill="white"/>
<path d="M88.5085 62.8444C92.1568 63.3233 95.7842 63.9797 99.4585 64.261C98.4799 64.294 97.5039 64.2407 96.5331 64.1394C93.8739 63.8885 91.2095 63.7364 88.5476 63.5717L88.5424 63.5159C88.5294 63.2904 88.5189 63.0674 88.5085 62.8444Z" fill="white"/>
<path d="M95.7842 70.4877C96.7314 70.5409 97.6787 70.6093 98.626 70.6701C98.6495 71.4786 98.6652 72.2845 98.6756 73.0929C97.6526 73.136 96.6297 73.1917 95.6067 73.2373C95.7841 72.3301 95.8337 71.4076 95.7842 70.4877Z" fill="white"/>
<path d="M53.996 65.6473C55.8776 65.4243 57.7174 64.9656 59.5911 64.6818C59.7816 64.9428 59.9747 65.2038 60.1678 65.4648C58.4481 65.6549 56.7257 65.8196 55.0007 65.9514C54.6667 65.845 54.3301 65.7462 53.996 65.6473Z" fill="white"/>
<path d="M103.044 64.6691C104.928 64.925 106.784 65.3584 108.665 65.6498C108.083 65.698 107.509 65.7892 106.932 65.8551C105.912 65.8551 104.9 65.6929 103.884 65.6118L103.861 65.5586C103.804 65.4319 103.691 65.1835 103.637 65.0568C103.443 64.92 103.245 64.7907 103.044 64.6691Z" fill="white"/>
<path d="M81.4207 66.3391C82.1905 66.4151 82.9604 66.4886 83.7276 66.5723C83.4145 66.8485 83.0987 67.1171 82.7542 67.3579C82.308 67.3452 81.8617 67.3097 81.4181 67.2844C81.4181 67.0487 81.4207 66.5748 81.4207 66.3391Z" fill="white"/>
<path d="M83.7276 66.5723C85.4187 66.6534 87.0888 66.9473 88.7773 67.036C88.6076 67.1729 88.2658 67.4466 88.0961 67.5809C86.3164 67.477 84.534 67.4567 82.7542 67.3579C83.0987 67.1171 83.4145 66.8485 83.7276 66.5723Z" fill="white"/>
<path d="M101.254 67.7786C101.671 67.8318 102.094 67.8749 102.512 67.9585C102.851 68.0599 103.188 68.179 103.516 68.3158C103.61 68.4375 103.796 68.6808 103.89 68.8024C103.01 68.7618 102.133 68.6985 101.259 68.6351C101.257 68.4223 101.254 67.9914 101.254 67.7786Z" fill="white"/>
<path d="M81.4102 69.5627C81.94 69.6008 82.4697 69.6362 83.0021 69.6717C83.023 71.0402 83.0204 72.4112 82.9838 73.7797C82.4593 73.8026 81.9348 73.8279 81.4102 73.8532C81.4128 72.4239 81.4128 70.9921 81.4102 69.5627Z" fill="white"/>
<path d="M74.5861 69.9834C75.7943 69.915 77.0052 69.8617 78.2135 69.7705C78.2161 70.8425 78.31 71.917 78.2317 72.989C78.2683 73.392 77.7907 73.4933 77.5323 73.6834C76.7521 73.6783 75.977 73.615 75.1967 73.582C75.2437 72.5379 75.2411 71.4913 75.2228 70.4472C75.0897 70.3509 74.8235 70.1557 74.6904 70.0594L74.5861 69.9834Z" fill="white"/>
<path d="M85.0481 69.8035C85.8336 69.8491 86.6191 69.9023 87.4046 69.9505C87.3994 71.1618 87.4046 72.3732 87.4281 73.5846C86.6478 73.62 85.8649 73.6581 85.0846 73.6885C85.0872 72.3935 85.0611 71.0985 85.0481 69.8035Z" fill="white"/>
<path d="M87.4046 69.9504C88.1848 69.9961 88.9625 70.0518 89.7428 70.105C89.8028 71.2378 89.8159 72.3783 89.6019 73.4984C88.8764 73.5237 88.1509 73.5541 87.428 73.5846C87.4046 72.3732 87.3993 71.1618 87.4046 69.9504Z" fill="white"/>
<path d="M70.8229 70.2089C71.6658 70.1937 72.5061 70.148 73.3438 70.072C73.3464 71.2124 73.3412 72.3528 73.3282 73.4933C72.6314 73.4679 71.9346 73.4426 71.2379 73.4071C71.2196 72.3528 71.5301 71.1719 70.8464 70.2494L70.8229 70.2089Z" fill="white"/>
<path d="M69.4059 70.3331C69.8861 70.3053 70.3663 70.2774 70.8464 70.2495C71.5302 71.172 71.2196 72.3529 71.2379 73.4072C70.6246 73.3793 70.014 73.354 69.4007 73.3261C69.3955 72.3276 69.3955 71.3291 69.4059 70.3331Z" fill="white"/>
<path d="M41.9369 72.1121C46.3367 71.7776 50.7418 71.5242 55.1469 71.2581C55.6897 71.7016 55.6349 72.2946 55.0921 72.7153C50.7105 72.4821 46.3185 72.3579 41.9369 72.1121Z" fill="white"/>
<path d="M158.618 34.1318C161.08 33.8735 163.734 34.5384 165.514 36.2704C168.619 39.3365 167.993 45.2399 164.053 47.387C161.067 49.0132 156.978 48.8438 154.315 46.6797C151.883 44.6851 151.297 41.1109 152.443 38.3159C153.436 35.902 156.003 34.3605 158.618 34.1318ZM158.43 34.7078C156.121 35.0338 154.691 37.1852 154.459 39.2984C154.153 41.7038 154.179 44.4734 155.841 46.4468C157.857 48.5177 161.884 48.505 163.699 46.1843C164.819 44.7148 165.042 42.8133 165.033 41.0431C164.985 39.3111 164.661 37.4477 163.454 36.0926C162.225 34.7374 160.192 34.3817 158.43 34.7078Z" fill="white"/>
<path d="M132.988 34.3392C137.619 34.335 142.25 34.335 146.881 34.3392C146.907 35.5123 146.96 36.6896 146.898 37.8669C146.067 37.0072 146.212 35.453 144.961 34.966C143.654 34.6992 142.298 34.8389 140.973 34.8135C140.969 38.3031 140.969 41.7968 140.969 45.2906C140.995 46.0148 140.947 46.794 141.336 47.4462C142.014 47.7341 142.77 47.7045 143.496 47.7807L143.501 48.1957C141.113 48.2169 138.725 48.2042 136.338 48.2042L136.351 47.7892C137.282 47.7003 138.9 47.8654 138.839 46.5145C139.014 42.6269 138.835 38.735 138.931 34.8474C137.532 34.8517 136.08 34.6399 134.715 35.0253C133.627 35.6309 133.876 37.1131 132.953 37.8372C132.909 36.6684 132.962 35.5038 132.988 34.3392Z" fill="white"/>
<path d="M172.9 34.3393C177.531 34.335 182.161 34.3393 186.792 34.3393C186.819 35.5039 186.867 36.6685 186.823 37.8373C185.962 37.0623 186.158 35.6055 185.043 35.0338C183.692 34.6273 182.245 34.8559 180.858 34.8517C180.928 38.4598 180.854 42.0679 180.893 45.676C180.963 46.2901 180.828 47.082 181.414 47.5097C182.122 47.7596 183.014 47.5987 183.578 48.1577C181.073 48.2339 178.558 48.2508 176.053 48.1492C176.757 47.3107 178.523 48.1196 178.707 46.811C178.974 42.8217 178.751 38.8113 178.821 34.8136C177.487 34.8348 176.127 34.7035 174.811 34.9576C173.547 35.4446 173.8 37.0623 172.873 37.8542C172.825 36.6812 172.873 35.5081 172.9 34.3393Z" fill="white"/>
<path d="M191.786 46.3028C193.702 42.2035 195.271 37.9559 197.283 33.8989C199.334 38.0406 200.952 42.3687 202.911 46.5485C203.23 47.3912 204.214 47.6114 204.901 48.1027C202.876 48.2678 200.838 48.2339 198.813 48.1535C199.334 47.603 200.165 47.6411 200.847 47.4293C200.523 45.9048 199.793 44.5073 199.168 43.0843C197.366 43.1013 195.564 43.0971 193.767 43.0928C193.317 44.2024 192.748 45.2907 192.573 46.4849C192.547 47.442 193.732 47.6411 194.357 48.1366C192.801 48.2382 191.235 48.2424 189.678 48.1493C190.396 47.5479 191.428 47.2261 191.786 46.3028ZM193.986 42.6355C195.661 42.627 197.335 42.627 199.015 42.6312C198.188 40.6917 197.349 38.7521 196.531 36.8083C195.564 38.7013 194.812 40.6874 193.986 42.6355Z" fill="white"/>
<path d="M209.256 34.3946C211.696 34.3311 214.149 34.2379 216.585 34.4581C215.702 35.1357 213.764 34.4073 213.821 35.9615C213.659 39.2012 213.786 42.4494 213.751 45.689C213.817 46.337 213.625 47.4084 214.508 47.5989C215.951 47.8149 217.473 47.8446 218.903 47.5185C220.547 46.9383 220.599 45.0157 221.601 43.868C221.728 45.3079 221.64 46.7562 221.605 48.2003C217.556 48.213 213.506 48.2045 209.457 48.2045L209.427 47.8107C210.279 47.7048 211.679 47.7429 211.613 46.5487C211.74 43.0168 211.731 39.468 211.617 35.9361C211.714 34.5174 209.916 35.1865 209.256 34.3946Z" fill="white"/>
<path d="M236.101 34.4495C238.432 34.2547 240.78 34.3055 243.115 34.4156C242.529 34.8687 241.747 34.856 241.064 35.0678C240.461 36.1053 240.763 37.3758 240.68 38.5192C240.785 40.8992 240.426 43.3427 241.003 45.6804C242.643 49.2249 249.522 48.0265 249.46 43.9822C249.535 41.454 249.565 38.9173 249.452 36.3891C249.517 35.0805 247.969 34.9704 247.073 34.4622C248.818 34.2674 250.576 34.3013 252.325 34.4029C251.542 35.0254 250.055 35.1652 250.09 36.406C249.871 39.2815 250.252 42.1908 249.867 45.0578C249.281 47.6834 246.137 48.6744 243.671 48.4415C241.506 48.3864 238.957 47.1753 238.734 44.8546C238.406 41.8266 238.826 38.7648 238.524 35.7369C238.41 34.513 236.814 35.1059 236.101 34.4495Z" fill="white"/>
<path d="M257.2 34.4538C258.648 34.3056 260.113 34.2632 261.565 34.3775C262.011 34.5851 262.229 35.0678 262.553 35.4151C265.067 38.6844 267.617 41.9241 270.157 45.1722C270.118 42.1528 270.245 39.1333 270.105 36.1181C270.039 34.9366 268.574 34.9239 267.687 34.7248L267.722 34.3479C269.515 34.3437 271.316 34.2844 273.113 34.3945C272.484 35.1271 271.023 34.9111 270.783 35.9656C270.437 40.2259 270.975 44.5328 270.507 48.7846C266.943 44.4481 263.607 39.9422 260.113 35.5591C260.135 39.074 260.052 42.5932 260.148 46.1124C260.017 47.6327 261.932 47.476 262.828 48.1451C260.913 48.2425 258.985 48.2552 257.069 48.1324C257.756 47.5438 258.797 47.5692 259.426 46.917C259.776 44.5497 259.501 42.1401 259.588 39.7558C259.514 38.2313 259.815 36.622 259.229 35.1652C258.574 34.873 257.839 34.7883 257.2 34.4538Z" fill="white"/>
<path d="M277.766 34.4367C280.101 34.2757 282.458 34.28 284.798 34.4324C284.177 34.9152 283.311 34.7712 282.642 35.1396C282.275 35.7579 282.358 36.5033 282.318 37.1851C282.318 39.8869 282.318 42.5845 282.318 45.2821C282.349 45.9894 282.279 46.7601 282.668 47.3996C283.385 47.6367 284.146 47.7723 284.833 48.1026C282.471 48.2677 280.093 48.272 277.731 48.1026C278.593 47.5563 280.25 47.84 280.184 46.4848C280.289 42.9953 280.285 39.4973 280.189 36.0078C280.298 34.5976 278.571 35.0719 277.766 34.4367Z" fill="white"/>
<path d="M290.046 34.3393C294.676 34.335 299.307 34.3393 303.938 34.3393C303.969 35.5166 304.017 36.6981 303.947 37.8796C303.134 36.9903 303.252 35.4022 301.962 34.9491C300.667 34.7077 299.338 34.8348 298.026 34.8136C298.092 38.8028 297.89 42.8006 298.131 46.7813C298.267 47.9247 299.697 47.641 300.527 47.7892L300.549 48.2043C298.1 48.1788 295.647 48.272 293.198 48.145C293.832 47.5055 294.843 47.8231 295.59 47.4166C295.997 46.7856 295.923 46.0106 295.966 45.3034C295.971 41.8054 295.962 38.3074 295.966 34.8136C294.655 34.8348 293.334 34.7162 292.04 34.9364C290.68 35.3472 290.977 37.0665 290.024 37.8669C289.967 36.6896 290.011 35.5123 290.046 34.3393Z" fill="white"/>
<path d="M309.592 34.4157C313.069 34.2463 316.554 34.3776 320.035 34.3395C320.166 35.593 320.376 36.8592 320.214 38.1212C319.549 37.0752 319.401 35.5168 318.071 35.034C316.659 34.6783 315.172 34.8434 313.729 34.8095C313.725 36.7491 313.729 38.6887 313.725 40.624C314.665 40.6071 315.627 40.6918 316.558 40.497C317.595 40.2429 317.101 38.9216 317.791 38.316C317.752 40.0057 318.307 41.9453 317.52 43.4868C317.284 42.7711 317.477 41.7928 316.777 41.3058C315.793 41.0051 314.739 41.1491 313.729 41.1152C313.821 43.1903 313.462 45.3459 314.066 47.3702C315.452 47.9588 317.083 47.7979 318.535 47.5184C320.367 46.9848 320.533 44.9139 321.605 43.6774C321.627 45.1892 321.469 46.6968 321.369 48.2044C317.35 48.1748 313.331 48.2764 309.321 48.1494C309.833 47.7428 310.515 47.6962 311.118 47.476C311.722 47.0907 311.582 46.2945 311.656 45.7016C311.683 42.8685 311.661 40.0354 311.665 37.2065C311.621 36.5289 311.7 35.8005 311.363 35.1822C310.777 34.9112 310.17 34.6867 309.592 34.4157Z" fill="white"/>
<path d="M327.176 34.4452C330.845 34.424 334.736 33.5855 338.23 35.0254C342.039 36.7405 342.927 41.7969 341.051 45.1594C339.997 47.1075 337.688 48.0857 335.502 48.1577C332.642 48.2424 329.778 48.2382 326.918 48.1577C327.543 47.3954 329.069 48.0264 329.375 46.9381C329.69 44.143 329.432 41.3099 329.524 38.5022C329.454 37.4181 329.686 36.2366 329.187 35.2329C328.606 34.839 327.836 34.9957 327.18 34.8814C327.18 34.7713 327.176 34.5553 327.176 34.4452ZM331.584 34.712C331.579 38.2354 331.575 41.7588 331.584 45.2865C331.627 46.0149 331.531 46.8322 332.021 47.459C333.534 47.9333 335.209 47.7385 336.704 47.2896C338.576 46.5485 339.455 44.5284 339.625 42.6905C339.844 40.3528 339.503 37.6764 337.662 35.974C336.04 34.4876 333.643 34.6866 331.584 34.712Z" fill="white"/>
<path d="M188.537 54.167C188.865 54.167 189.521 54.167 189.849 54.167C189.849 57.1314 189.849 60.0958 189.849 63.0602C189.521 63.0602 188.865 63.0602 188.537 63.0602C188.537 60.0958 188.537 57.1314 188.537 54.167Z" fill="white"/>
<path d="M196.426 54.4803C196.658 54.4803 197.121 54.4846 197.349 54.4888C197.349 57.3897 197.353 60.2948 197.349 63.1999C197.147 63.1618 196.741 63.0898 196.54 63.056L196.317 62.3699C195.289 63.5176 193.286 63.6023 192.254 62.4207C190.864 61.0105 191.467 58.2494 193.5 57.7539C194.55 57.3685 195.582 57.8555 196.439 58.423C196.417 57.1102 196.421 55.7932 196.426 54.4803ZM193.535 58.6729C192.04 59.3928 192.193 61.8744 193.811 62.3614C195.053 62.8019 196.505 61.8151 196.426 60.5235C196.614 59.071 194.838 57.9318 193.535 58.6729Z" fill="white"/>
<path d="M171.36 55.0266C172.978 55.1494 174.999 54.5904 176.271 55.8439C177.172 56.8137 176.568 58.2663 175.497 58.838C176.914 59.2615 177.67 60.9808 176.7 62.1666C175.344 63.5726 173.127 63.0263 171.36 63.1364C171.356 60.4345 171.36 57.7327 171.36 55.0266ZM172.362 55.9032C172.357 56.7587 172.357 57.6183 172.357 58.4823C173.503 58.3976 175.576 58.7956 175.65 57.161C175.532 55.556 173.486 56.0006 172.362 55.9032ZM172.362 59.3419C172.357 60.3117 172.357 61.2815 172.357 62.2555C173.315 62.2047 174.325 62.3445 175.243 62.0141C176.262 61.6626 176.337 60.1338 175.405 59.6426C174.465 59.2064 173.372 59.4055 172.362 59.3419Z" fill="white"/>
<path d="M185.734 55.2469C186.237 54.4507 187.466 55.6788 186.657 56.187C186.075 56.7884 185.109 55.7932 185.734 55.2469Z" fill="white"/>
<path d="M199.474 55.0352C200.466 54.6668 200.987 56.1787 199.916 56.3904C199.107 56.3777 198.962 55.4968 199.474 55.0352Z" fill="white"/>
<path d="M271.426 55.23C272.012 54.5398 273.052 55.5858 272.396 56.1744C271.78 56.8096 270.713 55.7594 271.426 55.23Z" fill="white"/>
<path d="M245.949 56.2548C246.163 56.2548 246.596 56.2548 246.811 56.2548C246.811 56.7587 246.815 57.2669 246.824 57.7751C247.362 57.7708 247.904 57.7751 248.446 57.7793V58.5289C247.904 58.5289 247.362 58.5331 246.819 58.5374C246.815 59.6088 246.767 60.6844 246.859 61.7559C246.78 62.6748 248 62.3276 248.547 62.3996C248.7 63.6954 246.273 63.543 246.002 62.4843C245.783 61.1842 245.918 59.8544 245.892 58.5458C245.595 58.5416 244.991 58.5289 244.69 58.5247L244.668 57.8471C245.945 58.152 245.967 57.178 245.949 56.2548Z" fill="white"/>
<path d="M267.394 56.314C267.634 56.3056 268.111 56.2802 268.351 56.2675C268.351 56.6317 268.347 57.3601 268.347 57.7243C268.933 57.9402 270.267 57.3812 270.07 58.5162C269.493 58.5246 268.92 58.5331 268.347 58.5416C268.36 59.7019 268.26 60.8665 268.43 62.0184C268.679 62.7002 269.62 62.264 270.144 62.4419C270.127 63.7039 267.726 63.5345 267.521 62.425C267.324 61.1418 267.446 59.8375 267.429 58.5501C267.127 58.5416 266.528 58.5289 266.231 58.5204L266.191 57.8047C266.506 57.7878 267.127 57.7624 267.442 57.7454C267.429 57.3897 267.407 56.674 267.394 56.314Z" fill="white"/>
<path d="M182.765 57.8767C182.979 57.8216 183.412 57.7073 183.626 57.6522C183.723 59.4478 183.753 61.2519 183.683 63.0517L183.224 63.2676C183.084 63.0644 182.809 62.6578 182.673 62.4503C181.816 63.6446 179.581 63.5683 179.052 62.1285C178.707 60.6886 178.925 59.1852 178.882 57.72C179.105 57.7539 179.551 57.8216 179.769 57.8513C179.874 59.1344 179.665 60.4388 179.923 61.7092C180.299 62.8399 182.196 62.6028 182.559 61.5652C182.94 60.3752 182.734 59.1005 182.765 57.8767Z" fill="white"/>
<path d="M185.765 57.809C185.988 57.7878 186.438 57.7455 186.661 57.7285C186.705 59.5622 186.701 61.4002 186.683 63.2381C186.456 63.1619 186.005 63.0136 185.778 62.9374C185.712 61.2265 185.795 59.5156 185.765 57.809Z" fill="white"/>
<path d="M199.369 57.8556C199.592 57.8091 200.029 57.7244 200.248 57.682C200.344 59.4945 200.3 61.3155 200.305 63.1365C200.073 63.1365 199.614 63.1365 199.382 63.1365C199.378 61.3748 199.382 59.6131 199.369 57.8556Z" fill="white"/>
<path d="M203.353 58.3087C204.411 57.4279 206.401 57.3008 207.004 58.7407C207.349 60.1382 207.196 61.6119 207.157 63.0391C206.938 63.0856 206.497 63.1788 206.278 63.2212C206.217 61.8575 206.418 60.4643 206.125 59.1218C205.653 58.0631 203.873 58.3383 203.506 59.3505C203.13 60.5701 203.335 61.8745 203.296 63.1322C203.064 63.1365 202.6 63.1365 202.373 63.1365C202.373 61.3155 202.364 59.4902 202.351 57.6692C202.6 57.8302 203.103 58.1478 203.353 58.3087Z" fill="white"/>
<path d="M210.34 57.9316C211.451 57.3557 212.715 57.7029 213.712 58.3212C213.887 58.1053 214.237 57.6691 214.412 57.4489C214.954 59.4901 214.691 61.671 214.6 63.7588C214.193 66.287 210.76 66.3209 209.011 65.0843C209.134 64.8514 209.374 64.3898 209.496 64.1569C210.397 64.826 211.574 65.3808 212.702 64.881C213.782 64.4787 213.699 63.221 213.891 62.3147C212.942 63.06 211.67 63.5386 210.493 62.9626C208.368 62.175 208.285 58.8337 210.34 57.9316ZM211.036 58.6007C209.527 59.1682 209.435 61.527 210.922 62.175C212.142 62.8525 213.826 61.8785 213.773 60.5191C213.952 59.1216 212.343 58.0121 211.036 58.6007Z" fill="white"/>
<path d="M221.308 57.9447C222.493 57.3179 223.905 57.7033 224.928 58.4444C224.189 59.5454 223.223 58.2114 222.265 58.4952C220.529 58.8213 220.333 61.4596 221.811 62.2303C222.633 62.7724 223.547 62.1922 224.316 61.8577C224.439 62.044 224.684 62.4124 224.806 62.5988C223.783 63.1535 222.545 63.5643 221.417 63.035C219.344 62.1668 219.292 58.8933 221.308 57.9447Z" fill="white"/>
<path d="M227.67 57.7921C229.529 57.0764 231.864 58.5163 231.68 60.5236C231.785 62.6961 229.008 63.9962 227.176 62.9078C225.09 61.8618 225.383 58.4231 227.67 57.7921ZM228.033 58.5671C226.372 59.0922 226.319 61.7263 227.959 62.3149C229.201 62.857 230.74 61.8745 230.688 60.549C230.858 59.1854 229.345 58.0547 228.033 58.5671Z" fill="white"/>
<path d="M234.304 58.2832C235.354 57.5251 237.12 57.2668 237.881 58.533C238.419 59.9983 238.082 61.6075 238.161 63.1363H237.243C237.199 61.8235 237.374 60.4895 237.111 59.1937C236.748 58.0799 234.899 58.3001 234.505 59.2995C234.072 60.5277 234.326 61.8659 234.265 63.1406L233.346 63.1363C233.351 61.273 233.294 59.4096 233.39 57.5505C233.622 57.7326 234.077 58.0968 234.304 58.2832Z" fill="white"/>
<path d="M240.085 58.3214C240.99 57.3813 242.757 57.3897 243.614 58.3934C243.697 59.2912 242.643 58.8592 242.215 58.5967C241.616 58.2155 240.422 58.6856 240.737 59.4733C241.524 59.9476 242.49 60.0111 243.312 60.4134C244.222 61.0021 244.051 62.5309 243.072 62.9755C241.9 63.5811 240.514 63.2296 239.503 62.5012C239.648 62.3191 239.936 61.9592 240.081 61.7771C240.898 62.3488 242.346 62.9289 242.954 61.7601C242.814 60.6718 241.393 60.8708 240.636 60.4388C239.7 60.2186 239.503 58.9651 240.085 58.3214Z" fill="white"/>
<path d="M250.733 58.3678C251.376 57.9232 252.106 57.6479 252.884 57.542C252.884 57.7749 252.876 58.2323 252.871 58.4652C252.15 58.588 251.122 58.5923 250.917 59.4604C250.602 60.6546 250.772 61.9082 250.737 63.1321C250.506 63.1321 250.046 63.1363 249.815 63.1405C250.011 61.256 249.369 59.1979 250.191 57.4489C250.326 57.6775 250.597 58.1349 250.733 58.3678Z" fill="white"/>
<path d="M254.253 57.7073C254.476 57.7327 254.918 57.792 255.141 57.8216C255.154 59.0794 255.032 60.3541 255.224 61.6076C255.482 62.8188 257.445 62.6578 257.861 61.633C258.307 60.4261 258.01 59.1048 258.132 57.8513C258.359 57.8216 258.81 57.7581 259.037 57.7242C259.033 59.5706 259.028 61.4128 259.055 63.2592C258.661 63.0813 258.272 62.9077 257.883 62.7341C256.846 63.4625 255.071 63.5599 254.446 62.2767C253.978 60.8072 254.271 59.2191 254.253 57.7073Z" fill="white"/>
<path d="M261.158 58.8423C261.888 57.6862 263.541 57.3474 264.783 57.8683C265.513 57.9064 265.627 58.6602 265.124 59.1049C264.477 58.7322 263.751 58.2579 262.964 58.5331C261.25 59.0456 261.28 61.7813 262.938 62.3615C263.939 62.8188 265.072 61.2689 265.758 62.5309C264.783 63.0856 263.611 63.5557 262.487 63.1068C260.734 62.552 260.196 60.2525 261.158 58.8423Z" fill="white"/>
<path d="M271.439 57.7963C271.666 57.7836 272.125 57.7625 272.353 57.7498C272.37 59.5665 272.366 61.3833 272.37 63.2C272.143 63.145 271.684 63.0306 271.456 62.9756C271.382 61.2478 271.465 59.5199 271.439 57.7963Z" fill="white"/>
<path d="M275.781 57.8809C277.666 56.9746 280.233 58.423 280.027 60.5404C280.11 62.6578 277.456 63.9452 275.632 62.9627C273.542 62.0311 273.625 58.6898 275.781 57.8809ZM276.17 58.6559C274.627 59.3589 274.784 61.9167 276.459 62.3783C277.701 62.7807 279.091 61.7939 279.034 60.5192C279.196 59.0836 277.478 57.9487 276.17 58.6559Z" fill="white"/>
<path d="M282.633 58.3808C283.626 57.4365 285.581 57.2755 286.272 58.6307C286.735 60.079 286.433 61.6375 286.503 63.1324C286.276 63.1324 285.812 63.1366 285.585 63.1366C285.568 61.8661 285.673 60.5872 285.502 59.3294C285.231 58.0293 283.097 58.275 282.786 59.4396C282.472 60.6423 282.642 61.9042 282.607 63.1324C282.38 63.1366 281.916 63.1366 281.684 63.1366C281.929 61.2817 281.138 59.1346 282.139 57.483C282.262 57.7075 282.511 58.1564 282.633 58.3808Z" fill="white"/>
<path d="M292.363 58.5669C293.251 57.5294 294.93 57.3642 296.111 58.0206C296.618 58.2874 296.627 58.6474 296.137 59.1005C295.481 58.749 294.759 58.2493 293.972 58.5331C292.236 59.0412 292.275 61.8066 293.955 62.3699C294.737 62.6663 295.424 62.1496 296.102 61.849C296.237 62.0438 296.508 62.4334 296.648 62.6282C295.691 63.0856 294.602 63.5344 293.539 63.1279C291.628 62.5647 291.121 59.9602 292.363 58.5669Z" fill="white"/>
<path d="M299.386 57.8428C301.271 57.0085 303.737 58.4653 303.545 60.5362C303.636 62.7552 300.742 64.0299 298.927 62.8484C297.003 61.7558 297.261 58.5627 299.386 57.8428ZM299.771 58.6178C298.288 59.2022 298.214 61.5441 299.64 62.2301C300.895 62.9585 302.631 61.921 302.548 60.515C302.705 59.1175 301.074 57.991 299.771 58.6178Z" fill="white"/>
</svg>
